<mxfile host="65bd71144e">
    <diagram id="cKBd_tNWkHlATPWrMS_m" name="Purpose">
        <mxGraphModel dx="945" dy="696" grid="1" gridSize="10" guides="1" tooltips="1" connect="1" arrows="1" fold="1" page="1" pageScale="1" pageWidth="827" pageHeight="1169" math="0" shadow="0">
            <root>
                <mxCell id="0"/>
                <mxCell id="1" parent="0"/>
                <mxCell id="2" value="" style="shape=actor;whiteSpace=wrap;html=1;" parent="1" vertex="1">
                    <mxGeometry x="330" y="340" width="60" height="90" as="geometry"/>
                </mxCell>
                <mxCell id="3" value="units" style="ellipse;shape=cloud;whiteSpace=wrap;html=1;" parent="1" vertex="1">
                    <mxGeometry x="160" y="340" width="120" height="80" as="geometry"/>
                </mxCell>
                <mxCell id="4" value="doctors in charge" style="ellipse;shape=cloud;whiteSpace=wrap;html=1;" parent="1" vertex="1">
                    <mxGeometry x="200" y="240" width="160" height="80" as="geometry"/>
                </mxCell>
                <mxCell id="5" value="patients" style="ellipse;shape=cloud;whiteSpace=wrap;html=1;" parent="1" vertex="1">
                    <mxGeometry x="440" y="330" width="160" height="80" as="geometry"/>
                </mxCell>
                <mxCell id="6" value="interventions" style="ellipse;shape=cloud;whiteSpace=wrap;html=1;" parent="1" vertex="1">
                    <mxGeometry x="360" y="240" width="160" height="80" as="geometry"/>
                </mxCell>
            </root>
        </mxGraphModel>
    </diagram>
    <diagram id="15UR6XnbTtkx_rhGs56_" name="ER">
        <mxGraphModel dx="610" dy="449" grid="1" gridSize="10" guides="1" tooltips="1" connect="1" arrows="1" fold="1" page="1" pageScale="1" pageWidth="827" pageHeight="1169" math="0" shadow="0">
            <root>
                <mxCell id="2u_GgeGQWRgM_z2mmB_E-0"/>
                <mxCell id="2u_GgeGQWRgM_z2mmB_E-1" parent="2u_GgeGQWRgM_z2mmB_E-0"/>
                <mxCell id="2u_GgeGQWRgM_z2mmB_E-16" value="" style="edgeStyle=none;html=1;startArrow=ERmany;startFill=0;endArrow=none;endFill=0;" parent="2u_GgeGQWRgM_z2mmB_E-1" source="2u_GgeGQWRgM_z2mmB_E-2" target="2u_GgeGQWRgM_z2mmB_E-15" edge="1">
                    <mxGeometry relative="1" as="geometry"/>
                </mxCell>
                <mxCell id="2u_GgeGQWRgM_z2mmB_E-2" value="Patient" style="rounded=0;whiteSpace=wrap;html=1;" parent="2u_GgeGQWRgM_z2mmB_E-1" vertex="1">
                    <mxGeometry x="180" y="300" width="120" height="60" as="geometry"/>
                </mxCell>
                <mxCell id="2u_GgeGQWRgM_z2mmB_E-10" style="edgeStyle=none;html=1;endArrow=none;endFill=0;startArrow=ERone;startFill=0;" parent="2u_GgeGQWRgM_z2mmB_E-1" source="2u_GgeGQWRgM_z2mmB_E-3" target="2u_GgeGQWRgM_z2mmB_E-9" edge="1">
                    <mxGeometry relative="1" as="geometry"/>
                </mxCell>
                <mxCell id="2u_GgeGQWRgM_z2mmB_E-29" value="" style="edgeStyle=none;html=1;startArrow=ERone;startFill=0;endArrow=none;endFill=0;" parent="2u_GgeGQWRgM_z2mmB_E-1" source="2u_GgeGQWRgM_z2mmB_E-3" target="2u_GgeGQWRgM_z2mmB_E-28" edge="1">
                    <mxGeometry relative="1" as="geometry"/>
                </mxCell>
                <mxCell id="2u_GgeGQWRgM_z2mmB_E-3" value="Doctor" style="rounded=0;whiteSpace=wrap;html=1;" parent="2u_GgeGQWRgM_z2mmB_E-1" vertex="1">
                    <mxGeometry x="510" y="70" width="120" height="60" as="geometry"/>
                </mxCell>
                <mxCell id="2u_GgeGQWRgM_z2mmB_E-11" style="edgeStyle=none;html=1;startArrow=ERone;startFill=0;endArrow=none;endFill=0;" parent="2u_GgeGQWRgM_z2mmB_E-1" source="2u_GgeGQWRgM_z2mmB_E-4" target="2u_GgeGQWRgM_z2mmB_E-9" edge="1">
                    <mxGeometry relative="1" as="geometry"/>
                </mxCell>
                <mxCell id="2u_GgeGQWRgM_z2mmB_E-4" value="Unit" style="rounded=0;whiteSpace=wrap;html=1;" parent="2u_GgeGQWRgM_z2mmB_E-1" vertex="1">
                    <mxGeometry x="180" y="70" width="120" height="60" as="geometry"/>
                </mxCell>
                <mxCell id="2u_GgeGQWRgM_z2mmB_E-7" style="edgeStyle=none;html=1;endArrow=none;endFill=0;" parent="2u_GgeGQWRgM_z2mmB_E-1" source="2u_GgeGQWRgM_z2mmB_E-5" target="2u_GgeGQWRgM_z2mmB_E-4" edge="1">
                    <mxGeometry relative="1" as="geometry"/>
                </mxCell>
                <mxCell id="2u_GgeGQWRgM_z2mmB_E-5" value="name" style="ellipse;whiteSpace=wrap;html=1;" parent="2u_GgeGQWRgM_z2mmB_E-1" vertex="1">
                    <mxGeometry x="40" y="50" width="80" height="40" as="geometry"/>
                </mxCell>
                <mxCell id="2u_GgeGQWRgM_z2mmB_E-8" style="edgeStyle=none;html=1;endArrow=none;endFill=0;" parent="2u_GgeGQWRgM_z2mmB_E-1" source="2u_GgeGQWRgM_z2mmB_E-6" target="2u_GgeGQWRgM_z2mmB_E-4" edge="1">
                    <mxGeometry relative="1" as="geometry"/>
                </mxCell>
                <mxCell id="2u_GgeGQWRgM_z2mmB_E-6" value="floor" style="ellipse;whiteSpace=wrap;html=1;" parent="2u_GgeGQWRgM_z2mmB_E-1" vertex="1">
                    <mxGeometry x="40" y="100" width="80" height="40" as="geometry"/>
                </mxCell>
                <mxCell id="2u_GgeGQWRgM_z2mmB_E-9" value="in charge" style="rhombus;whiteSpace=wrap;html=1;" parent="2u_GgeGQWRgM_z2mmB_E-1" vertex="1">
                    <mxGeometry x="374" y="60" width="80" height="80" as="geometry"/>
                </mxCell>
                <mxCell id="2u_GgeGQWRgM_z2mmB_E-21" value="" style="edgeStyle=none;html=1;startArrow=none;startFill=0;endArrow=none;endFill=0;" parent="2u_GgeGQWRgM_z2mmB_E-1" source="2u_GgeGQWRgM_z2mmB_E-12" target="2u_GgeGQWRgM_z2mmB_E-3" edge="1">
                    <mxGeometry relative="1" as="geometry"/>
                </mxCell>
                <mxCell id="2u_GgeGQWRgM_z2mmB_E-12" value="name" style="ellipse;whiteSpace=wrap;html=1;" parent="2u_GgeGQWRgM_z2mmB_E-1" vertex="1">
                    <mxGeometry x="670" y="20" width="90" height="40" as="geometry"/>
                </mxCell>
                <mxCell id="2u_GgeGQWRgM_z2mmB_E-19" value="" style="edgeStyle=none;html=1;startArrow=none;startFill=0;endArrow=none;endFill=0;" parent="2u_GgeGQWRgM_z2mmB_E-1" source="2u_GgeGQWRgM_z2mmB_E-13" target="2u_GgeGQWRgM_z2mmB_E-3" edge="1">
                    <mxGeometry relative="1" as="geometry"/>
                </mxCell>
                <mxCell id="2u_GgeGQWRgM_z2mmB_E-13" value="code" style="ellipse;whiteSpace=wrap;html=1;" parent="2u_GgeGQWRgM_z2mmB_E-1" vertex="1">
                    <mxGeometry x="670" y="70" width="90" height="40" as="geometry"/>
                </mxCell>
                <mxCell id="2u_GgeGQWRgM_z2mmB_E-20" value="" style="edgeStyle=none;html=1;startArrow=none;startFill=0;endArrow=none;endFill=0;" parent="2u_GgeGQWRgM_z2mmB_E-1" source="2u_GgeGQWRgM_z2mmB_E-14" target="2u_GgeGQWRgM_z2mmB_E-3" edge="1">
                    <mxGeometry relative="1" as="geometry"/>
                </mxCell>
                <mxCell id="2u_GgeGQWRgM_z2mmB_E-14" value="specialty" style="ellipse;whiteSpace=wrap;html=1;" parent="2u_GgeGQWRgM_z2mmB_E-1" vertex="1">
                    <mxGeometry x="670" y="120" width="90" height="40" as="geometry"/>
                </mxCell>
                <mxCell id="2u_GgeGQWRgM_z2mmB_E-17" value="" style="edgeStyle=none;html=1;startArrow=none;startFill=0;endArrow=ERone;endFill=0;" parent="2u_GgeGQWRgM_z2mmB_E-1" source="2u_GgeGQWRgM_z2mmB_E-15" target="2u_GgeGQWRgM_z2mmB_E-4" edge="1">
                    <mxGeometry relative="1" as="geometry"/>
                </mxCell>
                <mxCell id="2u_GgeGQWRgM_z2mmB_E-15" value="admit" style="rhombus;whiteSpace=wrap;html=1;rounded=0;" parent="2u_GgeGQWRgM_z2mmB_E-1" vertex="1">
                    <mxGeometry x="200" y="180" width="80" height="80" as="geometry"/>
                </mxCell>
                <mxCell id="2u_GgeGQWRgM_z2mmB_E-27" value="" style="edgeStyle=none;html=1;startArrow=none;startFill=0;endArrow=none;endFill=0;" parent="2u_GgeGQWRgM_z2mmB_E-1" source="2u_GgeGQWRgM_z2mmB_E-22" target="2u_GgeGQWRgM_z2mmB_E-2" edge="1">
                    <mxGeometry relative="1" as="geometry"/>
                </mxCell>
                <mxCell id="2u_GgeGQWRgM_z2mmB_E-22" value="SSNr." style="ellipse;whiteSpace=wrap;html=1;" parent="2u_GgeGQWRgM_z2mmB_E-1" vertex="1">
                    <mxGeometry x="40" y="280" width="80" height="40" as="geometry"/>
                </mxCell>
                <mxCell id="2u_GgeGQWRgM_z2mmB_E-26" value="" style="edgeStyle=none;html=1;startArrow=none;startFill=0;endArrow=none;endFill=0;" parent="2u_GgeGQWRgM_z2mmB_E-1" source="2u_GgeGQWRgM_z2mmB_E-23" target="2u_GgeGQWRgM_z2mmB_E-2" edge="1">
                    <mxGeometry relative="1" as="geometry"/>
                </mxCell>
                <mxCell id="2u_GgeGQWRgM_z2mmB_E-23" value="age" style="ellipse;whiteSpace=wrap;html=1;" parent="2u_GgeGQWRgM_z2mmB_E-1" vertex="1">
                    <mxGeometry x="40" y="340" width="80" height="40" as="geometry"/>
                </mxCell>
                <mxCell id="2u_GgeGQWRgM_z2mmB_E-25" value="" style="edgeStyle=none;html=1;startArrow=none;startFill=0;endArrow=none;endFill=0;" parent="2u_GgeGQWRgM_z2mmB_E-1" source="2u_GgeGQWRgM_z2mmB_E-24" target="2u_GgeGQWRgM_z2mmB_E-2" edge="1">
                    <mxGeometry relative="1" as="geometry"/>
                </mxCell>
                <mxCell id="2u_GgeGQWRgM_z2mmB_E-24" value="admission date" style="ellipse;whiteSpace=wrap;html=1;" parent="2u_GgeGQWRgM_z2mmB_E-1" vertex="1">
                    <mxGeometry x="175" y="400" width="130" height="40" as="geometry"/>
                </mxCell>
                <mxCell id="2u_GgeGQWRgM_z2mmB_E-31" value="" style="edgeStyle=none;html=1;startArrow=none;startFill=0;endArrow=ERmany;endFill=0;" parent="2u_GgeGQWRgM_z2mmB_E-1" source="2u_GgeGQWRgM_z2mmB_E-28" target="2u_GgeGQWRgM_z2mmB_E-30" edge="1">
                    <mxGeometry relative="1" as="geometry"/>
                </mxCell>
                <mxCell id="2u_GgeGQWRgM_z2mmB_E-28" value="write down" style="rhombus;whiteSpace=wrap;html=1;rounded=0;" parent="2u_GgeGQWRgM_z2mmB_E-1" vertex="1">
                    <mxGeometry x="530" y="200" width="80" height="80" as="geometry"/>
                </mxCell>
                <mxCell id="2u_GgeGQWRgM_z2mmB_E-30" value="intervention" style="whiteSpace=wrap;html=1;rounded=0;" parent="2u_GgeGQWRgM_z2mmB_E-1" vertex="1">
                    <mxGeometry x="510" y="370" width="120" height="60" as="geometry"/>
                </mxCell>
                <mxCell id="2u_GgeGQWRgM_z2mmB_E-35" value="" style="edgeStyle=none;html=1;startArrow=none;startFill=0;endArrow=none;endFill=0;" parent="2u_GgeGQWRgM_z2mmB_E-1" source="2u_GgeGQWRgM_z2mmB_E-32" target="2u_GgeGQWRgM_z2mmB_E-30" edge="1">
                    <mxGeometry relative="1" as="geometry"/>
                </mxCell>
                <mxCell id="2u_GgeGQWRgM_z2mmB_E-32" value="date" style="ellipse;whiteSpace=wrap;html=1;" parent="2u_GgeGQWRgM_z2mmB_E-1" vertex="1">
                    <mxGeometry x="670" y="330" width="90" height="40" as="geometry"/>
                </mxCell>
                <mxCell id="2u_GgeGQWRgM_z2mmB_E-36" value="" style="edgeStyle=none;html=1;startArrow=none;startFill=0;endArrow=none;endFill=0;" parent="2u_GgeGQWRgM_z2mmB_E-1" source="2u_GgeGQWRgM_z2mmB_E-33" target="2u_GgeGQWRgM_z2mmB_E-30" edge="1">
                    <mxGeometry relative="1" as="geometry"/>
                </mxCell>
                <mxCell id="2u_GgeGQWRgM_z2mmB_E-33" value="symptom" style="ellipse;whiteSpace=wrap;html=1;" parent="2u_GgeGQWRgM_z2mmB_E-1" vertex="1">
                    <mxGeometry x="670" y="380" width="90" height="40" as="geometry"/>
                </mxCell>
                <mxCell id="2u_GgeGQWRgM_z2mmB_E-37" value="" style="edgeStyle=none;html=1;startArrow=none;startFill=0;endArrow=none;endFill=0;" parent="2u_GgeGQWRgM_z2mmB_E-1" source="2u_GgeGQWRgM_z2mmB_E-34" target="2u_GgeGQWRgM_z2mmB_E-30" edge="1">
                    <mxGeometry relative="1" as="geometry"/>
                </mxCell>
                <mxCell id="2u_GgeGQWRgM_z2mmB_E-34" value="treatment" style="ellipse;whiteSpace=wrap;html=1;" parent="2u_GgeGQWRgM_z2mmB_E-1" vertex="1">
                    <mxGeometry x="670" y="430" width="90" height="40" as="geometry"/>
                </mxCell>
            </root>
        </mxGraphModel>
    </diagram>
    <diagram id="g17sYoDOzrbhVf1pqz28" name="UML">
        <mxGraphModel dx="945" dy="696" grid="1" gridSize="10" guides="1" tooltips="1" connect="1" arrows="1" fold="1" page="1" pageScale="1" pageWidth="827" pageHeight="1169" math="0" shadow="0">
            <root>
                <mxCell id="H7DWUn0vDwxtsgN2xfW3-0"/>
                <mxCell id="H7DWUn0vDwxtsgN2xfW3-1" parent="H7DWUn0vDwxtsgN2xfW3-0"/>
                <mxCell id="H7DWUn0vDwxtsgN2xfW3-2" value="intervention" style="swimlane;fontStyle=0;childLayout=stackLayout;horizontal=1;startSize=30;horizontalStack=0;resizeParent=1;resizeParentMax=0;resizeLast=0;collapsible=1;marginBottom=0;" parent="H7DWUn0vDwxtsgN2xfW3-1" vertex="1">
                    <mxGeometry x="510" y="650" width="140" height="180" as="geometry"/>
                </mxCell>
                <mxCell id="H7DWUn0vDwxtsgN2xfW3-3" value="+ interv_id: int" style="text;strokeColor=none;fillColor=none;align=left;verticalAlign=middle;spacingLeft=4;spacingRight=4;overflow=hidden;points=[[0,0.5],[1,0.5]];portConstraint=eastwest;rotatable=0;fontStyle=5" parent="H7DWUn0vDwxtsgN2xfW3-2" vertex="1">
                    <mxGeometry y="30" width="140" height="30" as="geometry"/>
                </mxCell>
                <mxCell id="H7DWUn0vDwxtsgN2xfW3-4" value="+ date: DateTime" style="text;strokeColor=none;fillColor=none;align=left;verticalAlign=middle;spacingLeft=4;spacingRight=4;overflow=hidden;points=[[0,0.5],[1,0.5]];portConstraint=eastwest;rotatable=0;" parent="H7DWUn0vDwxtsgN2xfW3-2" vertex="1">
                    <mxGeometry y="60" width="140" height="30" as="geometry"/>
                </mxCell>
                <mxCell id="H7DWUn0vDwxtsgN2xfW3-5" value="+ symptom: string" style="text;strokeColor=none;fillColor=none;align=left;verticalAlign=middle;spacingLeft=4;spacingRight=4;overflow=hidden;points=[[0,0.5],[1,0.5]];portConstraint=eastwest;rotatable=0;" parent="H7DWUn0vDwxtsgN2xfW3-2" vertex="1">
                    <mxGeometry y="90" width="140" height="30" as="geometry"/>
                </mxCell>
                <mxCell id="EQFYQsWWsO4goIYpaQZY-0" value="+ treatment: string" style="text;strokeColor=none;fillColor=none;align=left;verticalAlign=middle;spacingLeft=4;spacingRight=4;overflow=hidden;points=[[0,0.5],[1,0.5]];portConstraint=eastwest;rotatable=0;" parent="H7DWUn0vDwxtsgN2xfW3-2" vertex="1">
                    <mxGeometry y="120" width="140" height="30" as="geometry"/>
                </mxCell>
                <mxCell id="E_-45AFVvgKkehEzMwsS-2" value="+ fk_doc_id: int" style="text;strokeColor=none;fillColor=none;align=left;verticalAlign=middle;spacingLeft=4;spacingRight=4;overflow=hidden;points=[[0,0.5],[1,0.5]];portConstraint=eastwest;rotatable=0;fontStyle=2" parent="H7DWUn0vDwxtsgN2xfW3-2" vertex="1">
                    <mxGeometry y="150" width="140" height="30" as="geometry"/>
                </mxCell>
                <mxCell id="H7DWUn0vDwxtsgN2xfW3-6" value="doctor" style="swimlane;fontStyle=0;childLayout=stackLayout;horizontal=1;startSize=30;horizontalStack=0;resizeParent=1;resizeParentMax=0;resizeLast=0;collapsible=1;marginBottom=0;" parent="H7DWUn0vDwxtsgN2xfW3-1" vertex="1">
                    <mxGeometry x="180" y="650" width="140" height="180" as="geometry"/>
                </mxCell>
                <mxCell id="H7DWUn0vDwxtsgN2xfW3-7" value="+ doc_id: int" style="text;strokeColor=none;fillColor=none;align=left;verticalAlign=middle;spacingLeft=4;spacingRight=4;overflow=hidden;points=[[0,0.5],[1,0.5]];portConstraint=eastwest;rotatable=0;fontStyle=5" parent="H7DWUn0vDwxtsgN2xfW3-6" vertex="1">
                    <mxGeometry y="30" width="140" height="30" as="geometry"/>
                </mxCell>
                <mxCell id="H7DWUn0vDwxtsgN2xfW3-8" value="+ name: string" style="text;strokeColor=none;fillColor=none;align=left;verticalAlign=middle;spacingLeft=4;spacingRight=4;overflow=hidden;points=[[0,0.5],[1,0.5]];portConstraint=eastwest;rotatable=0;" parent="H7DWUn0vDwxtsgN2xfW3-6" vertex="1">
                    <mxGeometry y="60" width="140" height="30" as="geometry"/>
                </mxCell>
                <mxCell id="H7DWUn0vDwxtsgN2xfW3-9" value="+ code: int" style="text;strokeColor=none;fillColor=none;align=left;verticalAlign=middle;spacingLeft=4;spacingRight=4;overflow=hidden;points=[[0,0.5],[1,0.5]];portConstraint=eastwest;rotatable=0;" parent="H7DWUn0vDwxtsgN2xfW3-6" vertex="1">
                    <mxGeometry y="90" width="140" height="30" as="geometry"/>
                </mxCell>
                <mxCell id="ufXbV7tceos4C97dRHmW-0" value="+ speciality: string" style="text;strokeColor=none;fillColor=none;align=left;verticalAlign=middle;spacingLeft=4;spacingRight=4;overflow=hidden;points=[[0,0.5],[1,0.5]];portConstraint=eastwest;rotatable=0;" parent="H7DWUn0vDwxtsgN2xfW3-6" vertex="1">
                    <mxGeometry y="120" width="140" height="30" as="geometry"/>
                </mxCell>
                <mxCell id="cvMFojC20FSOcWy2Yq8x-0" value="+ fk_unit_id: int" style="text;strokeColor=none;fillColor=none;align=left;verticalAlign=middle;spacingLeft=4;spacingRight=4;overflow=hidden;points=[[0,0.5],[1,0.5]];portConstraint=eastwest;rotatable=0;fontStyle=2" parent="H7DWUn0vDwxtsgN2xfW3-6" vertex="1">
                    <mxGeometry y="150" width="140" height="30" as="geometry"/>
                </mxCell>
                <mxCell id="H7DWUn0vDwxtsgN2xfW3-10" value="patient" style="swimlane;fontStyle=0;childLayout=stackLayout;horizontal=1;startSize=30;horizontalStack=0;resizeParent=1;resizeParentMax=0;resizeLast=0;collapsible=1;marginBottom=0;" parent="H7DWUn0vDwxtsgN2xfW3-1" vertex="1">
                    <mxGeometry x="500" y="170" width="160" height="150" as="geometry"/>
                </mxCell>
                <mxCell id="H7DWUn0vDwxtsgN2xfW3-11" value="+ pat_id: int" style="text;strokeColor=none;fillColor=none;align=left;verticalAlign=middle;spacingLeft=4;spacingRight=4;overflow=hidden;points=[[0,0.5],[1,0.5]];portConstraint=eastwest;rotatable=0;fontStyle=5" parent="H7DWUn0vDwxtsgN2xfW3-10" vertex="1">
                    <mxGeometry y="30" width="160" height="30" as="geometry"/>
                </mxCell>
                <mxCell id="H7DWUn0vDwxtsgN2xfW3-12" value="+ ssnr: int" style="text;strokeColor=none;fillColor=none;align=left;verticalAlign=middle;spacingLeft=4;spacingRight=4;overflow=hidden;points=[[0,0.5],[1,0.5]];portConstraint=eastwest;rotatable=0;" parent="H7DWUn0vDwxtsgN2xfW3-10" vertex="1">
                    <mxGeometry y="60" width="160" height="30" as="geometry"/>
                </mxCell>
                <mxCell id="R0BHcyO8s3eixBe808E7-0" value="+ age: int" style="text;strokeColor=none;fillColor=none;align=left;verticalAlign=middle;spacingLeft=4;spacingRight=4;overflow=hidden;points=[[0,0.5],[1,0.5]];portConstraint=eastwest;rotatable=0;" parent="H7DWUn0vDwxtsgN2xfW3-10" vertex="1">
                    <mxGeometry y="90" width="160" height="30" as="geometry"/>
                </mxCell>
                <mxCell id="H7DWUn0vDwxtsgN2xfW3-13" value="+ admissionDate: DateTime" style="text;strokeColor=none;fillColor=none;align=left;verticalAlign=middle;spacingLeft=4;spacingRight=4;overflow=hidden;points=[[0,0.5],[1,0.5]];portConstraint=eastwest;rotatable=0;" parent="H7DWUn0vDwxtsgN2xfW3-10" vertex="1">
                    <mxGeometry y="120" width="160" height="30" as="geometry"/>
                </mxCell>
                <mxCell id="H7DWUn0vDwxtsgN2xfW3-14" value="unit" style="swimlane;fontStyle=0;childLayout=stackLayout;horizontal=1;startSize=30;horizontalStack=0;resizeParent=1;resizeParentMax=0;resizeLast=0;collapsible=1;marginBottom=0;" parent="H7DWUn0vDwxtsgN2xfW3-1" vertex="1">
                    <mxGeometry x="180" y="180" width="140" height="120" as="geometry"/>
                </mxCell>
                <mxCell id="H7DWUn0vDwxtsgN2xfW3-15" value="+ unit_id: int" style="text;strokeColor=none;fillColor=none;align=left;verticalAlign=middle;spacingLeft=4;spacingRight=4;overflow=hidden;points=[[0,0.5],[1,0.5]];portConstraint=eastwest;rotatable=0;fontStyle=5" parent="H7DWUn0vDwxtsgN2xfW3-14" vertex="1">
                    <mxGeometry y="30" width="140" height="30" as="geometry"/>
                </mxCell>
                <mxCell id="H7DWUn0vDwxtsgN2xfW3-16" value="+ name: string" style="text;strokeColor=none;fillColor=none;align=left;verticalAlign=middle;spacingLeft=4;spacingRight=4;overflow=hidden;points=[[0,0.5],[1,0.5]];portConstraint=eastwest;rotatable=0;" parent="H7DWUn0vDwxtsgN2xfW3-14" vertex="1">
                    <mxGeometry y="60" width="140" height="30" as="geometry"/>
                </mxCell>
                <mxCell id="H7DWUn0vDwxtsgN2xfW3-17" value="+ floor: int" style="text;strokeColor=none;fillColor=none;align=left;verticalAlign=middle;spacingLeft=4;spacingRight=4;overflow=hidden;points=[[0,0.5],[1,0.5]];portConstraint=eastwest;rotatable=0;" parent="H7DWUn0vDwxtsgN2xfW3-14" vertex="1">
                    <mxGeometry y="90" width="140" height="30" as="geometry"/>
                </mxCell>
                <mxCell id="zuX_XnC_C-qaxOoxba_z-1" style="edgeStyle=orthogonalEdgeStyle;html=1;startArrow=ERone;startFill=0;endArrow=ERmany;endFill=0;exitX=1;exitY=0.5;exitDx=0;exitDy=0;entryX=0;entryY=0.5;entryDx=0;entryDy=0;endSize=14;startSize=14;" parent="H7DWUn0vDwxtsgN2xfW3-1" source="H7DWUn0vDwxtsgN2xfW3-7" target="E_-45AFVvgKkehEzMwsS-2" edge="1">
                    <mxGeometry relative="1" as="geometry"/>
                </mxCell>
                <mxCell id="cvMFojC20FSOcWy2Yq8x-11" value="" style="edgeStyle=none;html=1;startArrow=ERmany;startFill=0;endArrow=ERone;endFill=0;endSize=14;startSize=14;" parent="H7DWUn0vDwxtsgN2xfW3-1" source="cvMFojC20FSOcWy2Yq8x-5" target="H7DWUn0vDwxtsgN2xfW3-13" edge="1">
                    <mxGeometry relative="1" as="geometry"/>
                </mxCell>
                <mxCell id="cvMFojC20FSOcWy2Yq8x-12" style="edgeStyle=none;html=1;startArrow=ERmany;startFill=0;endArrow=ERone;endFill=0;endSize=14;startSize=14;" parent="H7DWUn0vDwxtsgN2xfW3-1" source="cvMFojC20FSOcWy2Yq8x-5" target="H7DWUn0vDwxtsgN2xfW3-2" edge="1">
                    <mxGeometry relative="1" as="geometry"/>
                </mxCell>
                <mxCell id="cvMFojC20FSOcWy2Yq8x-5" value="patient_Intervention" style="swimlane;fontStyle=0;childLayout=stackLayout;horizontal=1;startSize=30;horizontalStack=0;resizeParent=1;resizeParentMax=0;resizeLast=0;collapsible=1;marginBottom=0;" parent="H7DWUn0vDwxtsgN2xfW3-1" vertex="1">
                    <mxGeometry x="510" y="430" width="140" height="90" as="geometry"/>
                </mxCell>
                <mxCell id="cvMFojC20FSOcWy2Yq8x-6" value="+ fk_pat_id: int" style="text;strokeColor=none;fillColor=none;align=left;verticalAlign=middle;spacingLeft=4;spacingRight=4;overflow=hidden;points=[[0,0.5],[1,0.5]];portConstraint=eastwest;rotatable=0;fontStyle=7" parent="cvMFojC20FSOcWy2Yq8x-5" vertex="1">
                    <mxGeometry y="30" width="140" height="30" as="geometry"/>
                </mxCell>
                <mxCell id="cvMFojC20FSOcWy2Yq8x-7" value="+ fk_interv_id: int" style="text;strokeColor=none;fillColor=none;align=left;verticalAlign=middle;spacingLeft=4;spacingRight=4;overflow=hidden;points=[[0,0.5],[1,0.5]];portConstraint=eastwest;rotatable=0;fontStyle=7" parent="cvMFojC20FSOcWy2Yq8x-5" vertex="1">
                    <mxGeometry y="60" width="140" height="30" as="geometry"/>
                </mxCell>
                <mxCell id="cvMFojC20FSOcWy2Yq8x-18" style="edgeStyle=none;html=1;startArrow=ERmany;startFill=0;endArrow=ERone;endFill=0;endSize=14;startSize=14;" parent="H7DWUn0vDwxtsgN2xfW3-1" source="cvMFojC20FSOcWy2Yq8x-13" target="H7DWUn0vDwxtsgN2xfW3-6" edge="1">
                    <mxGeometry relative="1" as="geometry"/>
                </mxCell>
                <mxCell id="cvMFojC20FSOcWy2Yq8x-19" style="edgeStyle=none;html=1;startArrow=ERmany;startFill=0;endArrow=ERone;endFill=0;endSize=14;startSize=14;" parent="H7DWUn0vDwxtsgN2xfW3-1" source="cvMFojC20FSOcWy2Yq8x-13" target="H7DWUn0vDwxtsgN2xfW3-14" edge="1">
                    <mxGeometry relative="1" as="geometry"/>
                </mxCell>
                <mxCell id="cvMFojC20FSOcWy2Yq8x-13" value="doctor_in_unit" style="swimlane;fontStyle=0;childLayout=stackLayout;horizontal=1;startSize=30;horizontalStack=0;resizeParent=1;resizeParentMax=0;resizeLast=0;collapsible=1;marginBottom=0;" parent="H7DWUn0vDwxtsgN2xfW3-1" vertex="1">
                    <mxGeometry x="180" y="415" width="140" height="90" as="geometry"/>
                </mxCell>
                <mxCell id="cvMFojC20FSOcWy2Yq8x-14" value="+ fk_unit_id: int" style="text;strokeColor=none;fillColor=none;align=left;verticalAlign=middle;spacingLeft=4;spacingRight=4;overflow=hidden;points=[[0,0.5],[1,0.5]];portConstraint=eastwest;rotatable=0;fontStyle=7" parent="cvMFojC20FSOcWy2Yq8x-13" vertex="1">
                    <mxGeometry y="30" width="140" height="30" as="geometry"/>
                </mxCell>
                <mxCell id="cvMFojC20FSOcWy2Yq8x-15" value="+ fk_doc_id: int" style="text;strokeColor=none;fillColor=none;align=left;verticalAlign=middle;spacingLeft=4;spacingRight=4;overflow=hidden;points=[[0,0.5],[1,0.5]];portConstraint=eastwest;rotatable=0;fontStyle=7" parent="cvMFojC20FSOcWy2Yq8x-13" vertex="1">
                    <mxGeometry y="60" width="140" height="30" as="geometry"/>
                </mxCell>
            </root>
        </mxGraphModel>
    </diagram>
</mxfile>